# xmcd
#
# Track frame offsets:
#	150
#	12303
#	25224
#	38236
#	49811
#	67194
#	79852
#	94039
#	105867
#	118356
#	134969
#	150548
#	161971
#	179162
#	195029
#
# Disc length: 3011 seconds
#
# Revision: 1
# Processed by: cddbd v1.5.2PL0 Copyright (c) Steve Scherf et al.
# Submitted via: audiograbber 1.83.01
#
DISCID=d00bc10f
DTITLE=Otis Redding - Dictionary Of Soul (Stereo)
DYEAR=1966
DGENRE=60's Soul Memphis Stax
TTITLE0=Fa-Fa-Fa-Fa-Fa (Sad Song) (Stereo Remastered)
TTITLE1=I'm Sick Y'All (Stereo Remastered)
TTITLE2=Tennessee Waltz (Stereo Remastered)
TTITLE3=Sweet Lorene (Stereo Remastered)
TTITLE4=Try A Little Tenderness (Stereo Remastered)
TTITLE5=Day Tripper (Stereo Remastered)
TTITLE6=My Lover's Prayer (Stereo Remastered)
TTITLE7=She Put The Hurt On Me
TTITLE8=Ton Of Joy (Stereo Remastered)
TTITLE9=You're Still My Baby (Stereo Remastered)
TTITLE10=Hawg For You (Stereo Remastered)
TTITLE11=Love Have Mercy (Stereo Remastered)
TTITLE12=Fa-Fa-Fa-Fa-Fa (Sad Song) (Live in Europe March 1967) (Stereo Remaster
TTITLE12=ed) 
TTITLE13=Day Tripper (Live in Europe March 1967) (Stereo Remastered)
TTITLE14=Try A Little Tenderness (Live In Europe)
EXTD=
EXTT0=
EXTT1=
EXTT2=
EXTT3=
EXTT4=
EXTT5=
EXTT6=
EXTT7=
EXTT8=
EXTT9=
EXTT10=
EXTT11=
EXTT12=
EXTT13=
EXTT14=
PLAYORDER=
